<?xml version="1.0" encoding="utf-8"?>
<!-- Generator: Adobe Illustrator 21.1.0, SVG Export Plug-In . SVG Version: 6.00 Build 0)  -->
<svg version="1.1" id="Layer_1" xmlns="http://www.w3.org/2000/svg" xmlns:xlink="http://www.w3.org/1999/xlink" x="0px" y="0px"
	 viewBox="0 0 362.9 362.9" style="enable-background:new 0 0 362.9 362.9;" xml:space="preserve">
<style type="text/css">
	.st0{fill:#AAAAAA;}
	.st1{fill:#444444;}
	.st2{fill:#A0A0A0;}
</style>
<path class="st0" d="M181.4,0C81.2,0,0,81.2,0,181.4s81.2,181.4,181.4,181.4s181.4-81.2,181.4-181.4S281.6,0,181.4,0z M181.4,354.2
	C86,354.2,8.6,276.9,8.6,181.4S86,8.6,181.4,8.6S354.2,86,354.2,181.4S276.9,354.2,181.4,354.2z"/>
<path class="st1" d="M181.4,8.6C86,8.6,8.6,86,8.6,181.4S86,354.2,181.4,354.2s172.8-77.4,172.8-172.8S276.9,8.6,181.4,8.6z
	 M181.4,266.1c-46.8,0-84.7-37.9-84.7-84.7s37.9-84.7,84.7-84.7s84.7,37.9,84.7,84.7S228.2,266.1,181.4,266.1z"/>
<circle class="st2" cx="181.4" cy="181.4" r="59.3"/>
</svg>
